/* XPM */
static char *enemy__1_1735577595[] = {
/* columns rows colors chars-per-pixel */
"50 50 227 2 ",
"   c #010103",
".  c #05060C",
"X  c #090915",
"o  c #120D16",
"O  c #101116",
"+  c #361B1B",
"@  c #0C0F27",
"#  c #0E1128",
"$  c #121524",
"%  c #16182C",
"&  c #0D153D",
"*  c #161B39",
"=  c #0B0F33",
"-  c #1D213D",
";  c #24252A",
":  c #242736",
">  c #3A3231",
",  c #5E393B",
"<  c #6C413D",
"1  c #1C1F42",
"2  c #241E42",
"3  c #1C2243",
"4  c #232643",
"5  c #252944",
"6  c #292D46",
"7  c #2A2B49",
"8  c #3C2A46",
"9  c #2E3249",
"0  c #2C3047",
"q  c #323649",
"w  c #333747",
"e  c #373853",
"r  c #422A45",
"t  c #4B2C43",
"y  c #512F46",
"u  c #473548",
"i  c #5A3549",
"p  c #583749",
"a  c #693948",
"s  c #753B49",
"d  c #47495E",
"f  c #574752",
"g  c #54525B",
"h  c #51434E",
"j  c #7C444B",
"k  c #6B4455",
"l  c #784957",
"z  c #67535A",
"x  c #785655",
"c  c #6F414D",
"v  c #4F5066",
"b  c #776B6B",
"n  c #686378",
"m  c #706C6D",
"M  c #69576C",
"N  c #894748",
"B  c #994C4A",
"V  c #894B56",
"C  c #885658",
"Z  c #99565A",
"A  c #944B56",
"S  c #A65755",
"D  c #B35E53",
"F  c #A54E4D",
"G  c #9C685E",
"H  c #A8645A",
"J  c #B9665A",
"K  c #895867",
"L  c #955B64",
"P  c #A95E62",
"I  c #9B646B",
"U  c #976667",
"Y  c #8A6376",
"T  c #9A6B76",
"R  c #8A7673",
"E  c #9F7A7E",
"W  c #9A7277",
"Q  c #9F786A",
"!  c #A96868",
"~  c #B66863",
"^  c #AA726D",
"/  c #AA756C",
"(  c #B87569",
")  c #A76A73",
"_  c #A67372",
"`  c #AA7677",
"'  c #B67B74",
"]  c #B36F71",
"[  c #C55E57",
"{  c #C56959",
"}  c #D6785E",
"|  c #D3725D",
" . c #C16E61",
".. c #C87867",
"X. c #D17861",
"o. c #E37F62",
"O. c #918071",
"+. c #BC806E",
"@. c #BC8272",
"#. c #BA8D7C",
"$. c #B48577",
"%. c #AE8E78",
"&. c #D18369",
"*. c #D98869",
"=. c #C78B75",
"-. c #DA8871",
";. c #C8977A",
":. c #D49376",
">. c #DA9A78",
",. c #CC846B",
"<. c #E78564",
"1. c #E9946D",
"2. c #E39A77",
"3. c #EC906E",
"4. c #E9A47A",
"5. c #9E7583",
"6. c #8F7483",
"7. c #AC7C84",
"8. c #A57887",
"9. c #AA7D8D",
"0. c #9B8785",
"q. c #8D8A9A",
"w. c #928C9A",
"e. c #9C979A",
"r. c #948B8E",
"t. c #AA838A",
"y. c #B38B85",
"u. c #A88896",
"i. c #B28B95",
"p. c #B58A93",
"a. c #A7959D",
"s. c #B5959A",
"d. c #B9938A",
"f. c #B2A99D",
"g. c #9894A6",
"h. c #8F8FA1",
"j. c #AB99A8",
"k. c #BB9EAB",
"l. c #B899A6",
"z. c #A98FA2",
"x. c #BBA5AF",
"c. c #ADA4B2",
"v. c #B9A8B5",
"b. c #BBB7BA",
"n. c #A7A7AD",
"m. c #CA9885",
"M. c #D49E8B",
"N. c #CBA588",
"B. c #D6A688",
"V. c #D2AF96",
"C. c #DAB797",
"Z. c #D2B18D",
"A. c #E8AA84",
"S. c #EBB585",
"D. c #E4B48B",
"F. c #EAB28A",
"G. c #EDBE8D",
"H. c #E6B185",
"J. c #F2BB8A",
"K. c #F3B585",
"L. c #E4BB93",
"P. c #E8B998",
"I. c #F2BE96",
"U. c #DEBEA3",
"Y. c #D5B8A2",
"T. c #C3ACB9",
"R. c #C5ABB7",
"E. c #CAB3BF",
"W. c #C3B5BC",
"Q. c #DAB2B3",
"!. c #C2ADAC",
"~. c #E8B7B1",
"^. c #F1C28D",
"/. c #EEC294",
"(. c #E9C29B",
"). c #F2C594",
"_. c #F4CB9D",
"`. c #F1C699",
"'. c #EFC08C",
"]. c #DFC4AE",
"[. c #DFC7B2",
"{. c #EDCAA6",
"}. c #E9C8A7",
"|. c #F4CEA3",
" X c #F3CCAA",
".X c #F5D4AC",
"XX c #F8D4A9",
"oX c #F4D6B2",
"OX c #F5DAB6",
"+X c #FADCB5",
"@X c #F5DDBB",
"#X c #FADFBA",
"$X c #EDCFB3",
"%X c #F6E0BF",
"&X c #FAE1BD",
"*X c #BDBDC3",
"=X c #CCB6C2",
"-X c #CDBDCA",
";X c #C7BBC5",
":X c #D0BDC9",
">X c #C7C1C4",
",X c #C7C1CB",
"<X c #D2C1CD",
"1X c #CEC9D4",
"2X c #DBCCD5",
"3X c #D7CAD4",
"4X c #DCD5DC",
"5X c #D9D5DA",
"6X c #DCD2C4",
"7X c #E1D4DE",
"8X c #F7E1C1",
"9X c #F9E2C1",
"0X c #F6E5CD",
"qX c #F6E7D4",
"wX c #DDD9E1",
"eX c #E4DBE3",
"rX c #E9DEE6",
"tX c #E6DBE4",
"yX c #ECE3EA",
"uX c #EFE8EF",
"iX c #E7E3E7",
"pX c #F3E7ED",
"aX c #EFECF2",
"sX c #F4EDF2",
"dX c #F6F1F6",
"gX c #4C904E",
"jX c #F7F3F8",
/* pixels */
"gXgXgXgXgXgXgXgXgXgXgXgXgXgXgXgXgXgXgXgXgXgXgXgXgXgXgXgXgXgXgXgXgXgXgXgXgXgXgXgXgXgXgXgXgXgXgXgXgXgX",
"gXgXgXgXgXgXgXgXgXgXgXgXgXgXgXgXgXgXgXgXgXgXgXgXgXgXgXgXgXgXgXgXgXgXgXgXgXgXgXgXgXgXgXgXgXgXgXgXgXgX",
"gXgXgXgXgXgXgXgXgXgXgXgXgXgXgXgXgXgXgXgXgXgXgXgXgXgXgXgXgXgXgXgXgXgXgXgXgXgXgXgXgXgXgXgXgXgXgXgXgXgX",
"gXgXgXgXgXgXgXgXgXgXgXgXgXgXgXgXgXjXsXeX<X-X<X-X-X<X<X<X<X:X:X4XrXdXgXgXgXgXgXgXgXgXgXgXgXgXgXgXgXgX",
"gXgXgXgXgXgXgXgXgXgXgXgXgXgXgXsX7X=Xx.p.I I W ` E E E 8.W I T 8.s.T.2XrXdXgXgXgXgXgXgXgXgXgXgXgXgXgX",
"gXgXgXgXgXgXgXgXgXgXgXgXgXgXeX=Xu.) / +.:.A.P.}.{.$X}.}.}.F.M.;.' _ t.!.2XsXgXgXgXgXgXgXgXgXgXgXgXgX",
"gXgXgXgXgXgXgXgXgXgXgXgXyX<Xx.y.=.>.H./.|.oX@X9X%X9X9X9X9X9X#XoX{.F.=.' p.E.eXgXgXgXgXgXgXgXgXgXgXgX",
"gXgXgXgXgXgXgXgXgXgXgXuXE.5./ :.H.).|..XOX8X8X8X8X%X9X9X9XqXqXqX9X+X|.A.,.` x.3XdXgXgXgXgXgXgXgXgXgX",
"gXgXgXgXgXgXgXgXgXgXuX-Xi.! =.S.^._.oX@X8X8X8X@X%X8X8X8X9XqXqX0X0X8X@XoXB.@.7.k.eXgXgXgXgXgXgXgXgXgX",
"gXgXgXgXgXgXgXgXgXgX2X9.I ( >.'._..XOX%X8X9X9X9X%X8X8X%X8X9X8X8X8X8X9X@X XB._ E -XuXgXgXgXgXgXgXgXgX",
"gXgXgXgXgXgXgXgXgXdX-X6.Z ..4.J._.|.@X%X8X8X8X9X8X9X&X8X8X8X8X8X9X8X8X9X#XP.` T T.eXgXgXgXgXgXgXgXgX",
"gXgXgXgXgXgXgXgXrXT.9.Y _ >.S.^.^.`.|..X@X@X8X8X%X9X8X8X8X8X%X%X@XOXOX+XXX(.#.W 5.l.2XsXgXgXgXgXgXgX",
"gXgXgXgXgXgXjXeXR.8._ m.C.G.^.^.^.J.S.J.).|.XXOX%X%X8X8X@X.X|.I.I.).`._.).G.P.N.' ` i.:XjXgXgXgXgXgX",
"gXgXgXgXgXgXjXiX=Xt.' C.`.).J.A.4.:.( ~ ( :.H./._.|..X{./.B.,.( ( ,.>.4.K.^._.P.y.t.k.3XgXgXgXgXgXgX",
"gXgXgXgXgXgXgXgXrXx.9.' =.4.:.( ! _ t.i.7._ / ;.D.^./.>.@.` 8.u.t.` ) ( =.>.2.=._ z.eXgXgXgXgXgXgXgX",
"gXgXgXgXgXgXgXgXdXeXR.9.! ~ ^ 7.l.W.1X*Xq.R ` ;.(.|.(.B.$.W 6.n.*X,XT.i._ ~ P 7.l.:XsXgXgXgXgXgXgXgX",
"gXgXgXgXgXgXgXgXgXgXuX:X9.V P m.$XqX6Xf.R O.Z.}.%X%X@X XP.0.O.0.!.qXqX~.] A 5.k.tXgXgXgXgXgXgXgXgXgX",
"gXgXgXgXgXgXgXgXgXgXgXuX:X5.P { -.F.L.L.Z.V.}.OX@X@X8X@X$XC.Z.C.L.I.A. .P ) k.eXdXgXgXgXgXgXgXgXgXgX",
"gXgXgXgXgXgXgXgXgXgXgXgXpX2Xl.) ~ X.1.K.).XX.X|.P.P.P.{..XXX_.'.2.<.~ P 9.=XrXgXgXgXgXgXgXgXgXgXgXgX",
"gXgXgXgXgXgXgXgXgXgXgXgXgXgXrX:Xp.! ~ X.-.4.F.A.2.2.2.2.S.4.2.&. .~ 7.R.7XdXgXgXgXgXgXgXgXgXgXgXgXgX",
"gXgXgXgXgXgXgXgXgXgXgXgXgXgXgXdX3Xz.K V A J  ...&.&.,... .J S A K 9.=XuXgXgXgXgXgXgXgXgXgXgXgXgXgXgX",
"gXgXgXgXgXgXgXgXgXgXgXgXgXgXsX4Xv.9.W W ` _ L U U U T U U U ] ;.' T l.eXjXgXgXgXgXgXgXgXgXgXgXgXgXgX",
"gXgXgXgXgXgXgXgXgXgXgXgXdXiXE.a.!.V.}.}.{.}.].C.}.[.}.[.[.C.P.{.V.d.s.E.wXdXgXgXgXgXgXgXgXgXgXgXgXgX",
"gXgXgXgXgXgXgXgXgXgXgXgXiX<Xi.$.B..X|.)._.|.OX&X&X@X&X9X%X(.N.N.V.(.V.s.x.:XuXgXgXgXgXgXgXgXgXgXgXgX",
"gXgXgXgXgXgXgXgXgXgXgXgXtXT.i.d.].oXZ.#.%.#.D.P./././.`.L.d./ C ( H.D.m.t.j.eXgXgXgXgXgXgXgXgXgXgXgX",
"gXgXgXgXgXgXgXgXgXgXgXuX=X9.d.U.$XY.R p p C @.A./.`.'.F.:.U c c C +.;.;.t.z.4XgXgXgXgXgXgXgXgXgXgXgX",
"gXgXgXgXgXgXgXgXgXgXgXrXx.T #.`._.N.z 8 i G M.{..X.X.X.XC.( j u p C ! ( $.z.wXgXgXgXgXgXgXgXgXgXgXgX",
"gXgXgXgXgXgXgXgXgXgXgXpXQ.' =.F.S.;.x u l $.|.+X@XOXoX&XoXB.G u y N J X.] 7.=XiXgXgXgXgXgXgXgXgXgXgX",
"gXgXgXgXgXgXgXgXgXgXgXpX~.X.<.4.4.>.G N C $.I.+X+XXXXX+X XB.G u i S o.<.{ ! z.1XdXgXgXgXgXgXgXgXgXgX",
"gXgXgXgXgXgXgXgXgXgXgXpX~.<.<.1.4.1.X.G j C ' m.N.N.B.N.=.! s r i S X.<.J ! i.;XuXgXgXgXgXgXgXgXgXgX",
"gXgXgXgXgXgXgXgXgXgXgXpX~...} <.3.*.H c 8 8 p p f z g f r 8 8 r a S [ | J Z a.;XaXgXgXgXgXgXgXgXgXgX",
"gXgXgXgXgXgXgXgXgXgXgXrXR.T S D { S s , 7 3 0 7 : 5 3 1 1 1 2 i N D [ { F C u.,XaXgXgXgXgXgXgXgXgXgX",
"gXgXgXgXgXgXgXgXgXgXjXdX<Xu.Y l x K k p 7 4 9 q 0 6 5 3 1 1 1 y s N F F G 5.b.eXjXgXgXgXgXgXgXgXgXgX",
"gXgXgXgXgXgXgXgXgXgXgXgXdXeX;Xc.c.n.w.n e 7 w e 9 6 5 5 5 3 3 e k K K T l.3XuXgXgXgXgXgXgXgXgXgXgXgX",
"gXgXgXgXgXgXgXgXgXgXgXgXgXgXjXjXjXaX1Xg.d 5 q 5 * 3 5 9 5 3 7 v q.*X1X3XiXgXgXgXgXgXgXgXgXgXgXgXgXgX",
"gXgXgXgXgXgXgXgXgXgXgXgXgXgXgXgXgXjXwXg.d 4 q : # % 5 5 1 1 3 d h.wXjXgXgXgXgXgXgXgXgXgXgXgXgXgXgXgX",
"gXgXgXgXgXgXgXgXgXgXgXgXgXgXgXgXgXdX1Xh.d 5 w ; X $ - : 5 3 * % d c.wXgXgXgXgXgXgXgXgXgXgXgXgXgXgXgX",
"gXgXgXgXgXgXgXgXgXgXgXgXgXjXgXgXgX4Xr.d 0 5 w ; O $ : 9 q q : $ u g.5XjXgXgXgXgXgXgXgXgXgXgXgXgXgXgX",
"gXgXgXgXgXgXgXgXgXgXgXgXgXgXgXjXdX>Xg % - 6 w ; . O $ % * * $ . h e.5XjXgXgXgXgXgXgXgXgXgXgXgXgXgXgX",
"gXgXgXgXgXgXgXgXgXgXgXgXgXgXgXgXdX>Xg $ - 0 w : O .   . . .     > e.5XjXgXgXgXgXgXgXgXgXgXgXgXgXgXgX",
"gXgXgXgXgXgXgXgXgXgXgXgXgXgXgXgXsX>Xg $ - 0 w w : $ X o o X O ; m W.uXgXgXgXgXgXgXgXgXgXgXgXgXgXgXgX",
"gXgXgXgXgXgXgXgXgXgXgXgXgXgXgXgXdX>Xg $ - 3 6 3 4 1 * r < N < , b b.iXjXgXgXgXgXgXgXgXgXgXgXgXgXgXgX",
"gXgXgXgXgXgXgXgXgXgXgXgXgXgXgXgXjX>Xg . X = & & & 1 8 k Z S N < b c.4XgXgXgXgXgXgXgXgXgXgXgXgXgXgXgX",
"gXgXgXgXgXgXgXgXgXgXgXgXgXgXgXgXjX6Xm ; . X @ = & e n 6.t.` 0.j.*X7XaXgXgXgXgXgXgXgXgXgXgXgXgXgXgXgX",
"gXgXgXgXgXgXgXgXgXgXgXgXgXgXgXgXgXuXb.m + + , i y M g.;XwXwXiXgXgXgXgXgXgXgXgXgXgXgXgXgXgXgXgXgXgXgX",
"gXgXgXgXgXgXgXgXgXgXgXgXgXgXgXgXgXjX1Xe.x N D S N K g.5XgXgXgXjXgXgXgXgXgXgXgXgXgXgXgXgXgXgXgXgXgXgX",
"gXgXgXgXgXgXgXgXgXgXgXgXgXgXgXgXgXjXiX[.e.R I K V 6.c.wXgXgXgXgXgXgXgXgXgXgXgXgXgXgXgXgXgXgXgXgXgXgX",
"gXgXgXgXgXgXgXgXgXgXgXgXgXgXgXgXjXgXjXaX5X>Xc.c.*X-X4XpXgXgXgXgXgXgXgXgXgXgXgXgXgXgXgXgXgXgXgXgXgXgX",
"gXgXgXgXgXgXgXgXgXgXgXgXgXgXgXgXgXgXgXgXgXjXjXgXjXgXjXgXgXgXgXgXgXgXgXgXgXgXgXgXgXgXgXgXgXgXgXgXgXgX",
"gXgXgXgXgXgXgXgXgXgXgXgXgXgXgXgXgXgXgXgXgXgXgXgXgXgXgXgXgXgXgXgXgXgXgXgXgXgXgXgXgXgXgXgXgXgXgXgXgXgX"
};
