/* XPM */
static char *_4802ee4d60d446698f3c5106484b7beEykl09ehgabfg6xT[] = {
/* columns rows colors chars-per-pixel */
"50 50 235 2 ",
"   c #FBB03B",
".  c #F6F6F6",
"X  c gray97",
"o  c #EEEEEE",
"O  c #F1F1F1",
"+  c gray96",
"@  c gray94",
"#  c #F4F4F4",
"$  c #F3F3F3",
"%  c gray95",
"&  c #EFEFEF",
"*  c #F8F8F8",
"=  c black",
"-  c #FFB33C",
";  c #FEB23C",
":  c #FCB13B",
">  c #FDB23C",
",  c #080707",
"<  c #E9E9E9",
"1  c gray91",
"2  c gray92",
"3  c #FCB03B",
"4  c #191105",
"5  c #E7E6E6",
"6  c #E7E7E7",
"7  c #151414",
"8  c #1D1406",
"9  c #D8D8D8",
"0  c #32230B",
"q  c #EDECEC",
"w  c #343333",
"e  c #332612",
"r  c #232223",
"t  c #454445",
"y  c gray74",
"u  c gray93",
"i  c #F1A939",
"p  c #E8A337",
"a  c #543A12",
"s  c #0B0600",
"d  c #2D2C2D",
"f  c #FAAF3B",
"g  c #D5D5D6",
"h  c #F5AC3A",
"j  c #D79833",
"k  c gray61",
"l  c #C98E2F",
"z  c #8E8E8F",
"x  c gray90",
"c  c #C9C8C8",
"v  c #ABABAC",
"b  c #D5D4D4",
"n  c gray89",
"m  c #CE9130",
"M  c #727272",
"N  c #292829",
"B  c #A07126",
"V  c #1C1B1C",
"C  c #959494",
"Z  c #E1E0E0",
"A  c #DCDCDB",
"S  c #30220C",
"D  c #B4B3B3",
"F  c #6E4D19",
"G  c gray29",
"H  c #838282",
"J  c #2F2E2D",
"K  c #050201",
"L  c #CECECE",
"P  c #9B9A9A",
"I  c #696868",
"U  c #191818",
"Y  c #B1B0B0",
"T  c #B2B2B2",
"R  c #2A292A",
"E  c #EAEAEA",
"W  c #0E0D0D",
"Q  c #A67526",
"!  c #FAB03B",
"~  c #D09331",
"^  c #C78C2E",
"/  c #5E5E5F",
"(  c #110B02",
")  c #FDB13B",
"_  c #7D571B",
"`  c #443010",
"'  c #F6AD3A",
"]  c #1F1608",
"[  c #B7812B",
"{  c #C58B2E",
"}  c gray59",
"|  c #EDEDEC",
" . c #D2D1D1",
".. c #3F2C0F",
"X. c #DB9A33",
"o. c #D4D3D3",
"O. c #E6A236",
"+. c #C5C6C6",
"@. c #523A13",
"#. c #805A1E",
"$. c #E2E2E2",
"%. c #855E20",
"&. c #ECA638",
"*. c #363637",
"=. c #3C3B3B",
"-. c #412E0E",
";. c #F9F9F9",
":. c #CB8F30",
">. c #4A3411",
",. c #463110",
"<. c #1E1810",
"1. c #553C14",
"2. c #EDA738",
"3. c #6D6C6C",
"4. c #AC7928",
"5. c #797879",
"6. c #939293",
"7. c #A87728",
"8. c #32302E",
"9. c #C3C3C3",
"0. c #2B251D",
"q. c #2E2416",
"w. c #D59633",
"e. c #8B8A8A",
"r. c #656464",
"t. c #FFB43C",
"y. c #9F9E9D",
"u. c #37270E",
"i. c #605F5F",
"p. c #494848",
"a. c #888888",
"s. c #7B7A7B",
"d. c #A1A1A0",
"f. c #DFDFDF",
"g. c gray68",
"h. c #D99933",
"j. c #262525",
"k. c #323131",
"l. c #585756",
"z. c #100F0F",
"x. c #B6B5B5",
"c. c #271B09",
"v. c #393838",
"b. c #4E4E4E",
"n. c #21201F",
"m. c #595958",
"M. c #5D5C5C",
"N. c #A2A2A2",
"B. c #403F3F",
"V. c #DADADA",
"C. c #9F9FA1",
"Z. c #2C2214",
"A. c #4D4D4E",
"S. c #D49532",
"D. c #7A561B",
"F. c #262526",
"G. c #BBBBBC",
"H. c #2B2720",
"J. c #251F17",
"K. c #CACACB",
"L. c #956821",
"P. c #5C4013",
"I. c #714F18",
"U. c #1E1B17",
"Y. c #211E1A",
"T. c #878889",
"R. c #474748",
"E. c #2D210D",
"W. c #604315",
"Q. c #E9A437",
"!. c #B27D29",
"~. c #8F9091",
"^. c #545453",
"/. c #373636",
"(. c #C0C0C0",
"). c #C8C7C7",
"_. c #9C6F25",
"`. c #F8AE3A",
"'. c #4D3511",
"]. c #6C4C1A",
"[. c #8F6522",
"{. c #979796",
"}. c #E5A136",
"|. c #F3AB39",
" X c gray72",
".X c #EFA838",
"XX c #E09E35",
"oX c #6B6A6A",
"OX c #835D20",
"+X c #634617",
"@X c #6B4C19",
"#X c #B9832C",
"$X c #7E7F80",
"%X c #583F15",
"&X c #4D3611",
"*X c #996C25",
"=X c #E8A437",
"-X c #78551D",
";X c gray87",
":X c #F0F0EF",
">X c #3B290E",
",X c #C68B2E",
"<X c gray",
"1X c #989796",
"2X c #AE7B2A",
"3X c #C0872D",
"4X c #BB842D",
"5X c #CDCDCD",
"6X c #CB9031",
"7X c #A5A5A5",
"8X c #AB7827",
"9X c #79551A",
"0X c #C3892D",
"qX c #74521C",
"wX c gray81",
"eX c #73521C",
"rX c #CB9030",
"tX c #0E0C0C",
"yX c #B7B7B6",
"uX c #5B5B5C",
"iX c #8B8B8B",
"pX c #E9EAE9",
"aX c #535252",
"sX c gray66",
"dX c #7A571E",
"fX c #80807F",
"gX c #565555",
"hX c #131211",
"jX c #818181",
"kX c #818080",
"lX c #706F6F",
"zX c #D39532",
"xX c gray7",
"cX c #FBF6F7",
"vX c #F6F7EE",
/* pixels */
"* @ $ # & . O $ # & . O $ # O :X1X/., , k.C < . & . O $ # & . O $ # & . O $ # & . O $ # & . O $ + u ",
"% $ $ % $ % $ $ % $ % $ % # 5 3., K 4 4 K , r.Z # % $ $ % $ % $ $ % $ % $ $ % $ % $ $ % $ % $ $ % $ ",
"& # $ O + @ # $ O + @ # $ 2 oX= -.7.w.j 4.,.= i.| O # $ O + @ # $ O + @ # $ O + @ # $ O + @ # $ O . ",
"X O $ # @ + O $ # @ + O + {., +X=X- > > - &.@X, z * O $ # @ + O $ # @ + O $ # @ + O $ # @ + O $ # o ",
"O $ $ % $ % $ $ % $ % + 9 R >.&.>         ) .Xa r o.+ % % $ % $ $ % $ % $ $ % $ % $ $ % $ % $ $ % # ",
"& # $ O # O # $ O # O X H 4 l t.            ; ~ 8 5.. $ O # O # $ O # O # $ O # O # $ O # O # $ O . ",
"X O $ # @ + O $ # @ . Z *.F &.j               : D.F.9 # # @ + O $ # @ + O $ # @ + O $ # @ + O $ # o ",
"O $ $ % # O $ $ % # +  X<.l [.@.'             ; S.] C . % # O $ $ % # O $ $ % # O $ $ % # O $ $ % # ",
"@ # $ % # O $ $ % # # $X-.XX0 ].                f W.t q % # O $ $ % # O $ $ % # O $ $ % # O $ $ O + ",
"* O $ # @ + O $ # @ % G _ #X8 ^ ;               - !.U.9.X @ + O $ # @ + O $ # @ + O $ # @ + O $ # u ",
"@ $ $ % # O $ $ % + ;X8.4.#.` |.3               : Q.0 T.+ # O $ $ % # O $ $ % # O $ $ % # O $ $ % + ",
"@ $ $ % # O $ $ % . L 0.,X@.-X;                   > I.R.2 # O $ $ % # O $ $ % # O $ $ % # O $ $ % + ",
"X O $ # @ + O $ # $ +.q.m >XB -                   - [ Y. .% + O $ # @ + O $ # @ + O $ # @ + O $ # o ",
"& # $ O # O # $ O * D e m 0 [ -                   : }.E.} * O # $ O # O # $ O # O # $ O # O # $ O . ",
"O $ $ % $ % $ $ % X Y e 6XS 3X;                     ! P./ # % $ $ % $ % $ $ % $ % $ $ % $ % $ $ % # ",
"X O $ # @ + O $ # $ y e rX0 4X-                     - L.w Z . O $ # @ + O $ # @ + O $ # @ + O $ # o ",
"& # $ O + @ # $ O * y q.:.u.7.-                     ; ^ J.K.$ # $ O + @ # $ O + @ # $ O + @ # $ O . ",
"% $ $ % $ % $ $ % + wX0.0X>.%.-                     : p 0 C.. $ $ % $ % $ $ % $ % $ $ % $ % $ $ % $ ",
"X O $ # @ + O $ # O x 8.8XqXeX;                       f a M * O $ # @ + O $ # @ + O $ # @ + O $ # o ",
"o # $ O + @ # $ O + q b.9XX.w.-                       ; _ A.q # $ O + @ # $ O + @ # $ O + @ # $ O X ",
"% $ $ % $ % $ $ % $ . s...h O.{                       - Q w n $ $ % $ % $ $ % $ % $ $ % $ % $ $ % $ ",
"X O $ # @ + O $ # @ * T <.l 2Xc.m >                   ; { H.g $ $ # @ + O $ # @ + O $ # @ + O $ # o ",
"o # $ O + @ # $ O + O 5 w F w.] %X'                   ) X.Z.G.X $ O + @ # $ O + @ # $ O + @ # $ O X ",
"$ % $ $ % $ % $ $ % $ + a.4 l *X@.i 3                 : p e v . $ $ % $ % $ $ % $ % $ $ % $ % $ $ % ",
". O $ # @ + O $ # @ + $ A R &Xp }.                    3 i ..k + $ # @ + O $ # @ + O $ # @ + O $ # & ",
"o # $ O + @ # $ O + @ # + P , #.  3                     h ,.~.* $ O + @ # $ O + @ # $ O + @ # $ O X ",
"# % $ $ % $ % $ $ % $ % $ | / s _.:                     ' '.z . $ $ % $ % $ $ % $ % $ $ % $ % $ $ O ",
". O $ # O # O $ # O # O % . 9 =.( Q : 3                 h ,.6.. $ # O # O $ # O # O $ # O # O $ # & ",
"o # $ O + @ # $ O + @ # $ O * +.d ( B ! :             : 2.u.k ;.% O + @ # $ O + @ # $ O + @ # $ O X ",
"+ % $ $ O # % $ $ O # % $ $ O . (.d s %.i ;           > h.4 uXo $ $ O # % $ $ O # % $ $ O # % $ $ @ ",
"+ % $ $ O # % $ $ O # % $ $ O # # c /.= 1.~ > >       t.B K W Y . $ O # % $ $ O # % $ $ O # % $ $ @ ",
"u # $ O + @ # $ O + @ # $ O + @ # + b ^.= 8 OXh.`.- > zX0 t w B.6 % + @ # $ O + @ # $ O + @ # $ O * ",
"+ % $ $ O # % $ $ O # % $ $ O # % % . x e.V = 8 1.dXF c.xXY N.W C X O # % $ $ O # % $ $ O # % $ $ @ ",
"+ % $ $ O # % $ $ O # % $ $ O # % % $ % + ).I V = = = = M.5 Z b.R V.# # o + # O # % $ $ O # % $ $ @ ",
"o # $ O + @ # $ O + @ # $ O + @ # $ O + @ X O  .d.fXe.t R L 2 x.7 5.1 s.G y.o . @ # $ O + @ # $ O X ",
". O $ # O # O $ # O # O $ # O # O $ # O # O $ . + * * 9.7 M 6 5 I V aX= = tXg.$ # O $ # O # O $ # & ",
"# % $ $ % $ % $ $ % $ % $ $ % $ % $ $ % $ % $ $ % $ % $ lXU y 2 c r = l.k J p.2 # % $ $ % $ % $ $ O ",
"o # $ O + @ # $ O + @ # $ O + @ # $ O + @ # $ O + @ # + o.r m.n < H N 5Xo d.r g % # $ O + @ # $ O X ",
". O $ # @ + O $ # @ + O $ # @ + O $ # @ + O $ # @ + O $ . iXz.sXE 9 yXx 1 5XR x.* O $ # @ + O $ # & ",
"$ % $ $ % $ % $ $ % $ % $ $ % $ % $ $ % $ % $ $ % $ % % # $.v.B.A 1 < 5 6  .J D . % $ $ % $ % $ $ % ",
"o # $ O + @ # $ O + @ # $ O + @ # $ O + @ # $ O + @ # $ O ;.7Xz.6.< 1 1 < <Xj.c $ # $ O + @ # $ O X ",
"X O $ # @ + O $ # @ + O $ # @ + O $ # @ + O $ # @ + O $ # % b U r.< N.v Z 3.d A . O $ # @ + O $ # o ",
"% $ $ % $ % $ $ % $ % $ $ % $ % $ $ % $ % $ $ % $ % $ $ % . 6.U D 1 l.7 =., M $ % $ $ % $ % $ $ % $ ",
"o # $ O + @ # $ O + @ # $ O + @ # $ O + @ # $ O + @ # $ O + M.m.6 pXa.= = t g X @ # $ O + @ # $ O X ",
"X O $ # @ + O $ # @ + O $ # @ + O $ # @ + O $ # @ + O $ # 2 p.H E < g.n.k f.. @ + O $ # @ + O $ # o ",
"% $ $ % $ % $ $ % $ % $ $ % $ % $ $ % $ % $ $ % $ % $ $ % & G jXE < v J f.+ % $ % $ $ % $ % $ $ % $ ",
"& # $ O # O # $ O # O # $ O # O # $ O # O # $ O # O # $ O . i.gX6 q kXv.1 $ O # O # $ O # O # $ O . ",
"X O $ # @ + O $ # @ + O $ # @ + O $ # @ + O $ # @ + O $ # $ P 7 P T j.I % $ # @ + O $ # @ + O $ # o ",
"O $ $ % $ % $ $ % $ % $ $ % $ % $ $ % $ % $ $ % $ % $ $ % + V.k., W 7 y . % % $ % $ $ % $ % $ $ % # ",
"o # $ O + @ # $ O + @ # $ O + @ # $ O + @ # $ O + @ # $ O + % T n.hXz & # $ O + @ # $ O + @ # $ O X "
};
