/* XPM */
static char * white_fox_xpm[] = {
"50 50 3 1",
" 	c #32CD32",
".	c #FFFFFF",
"+	c #D3D3D3",
"                                                  ",
"                                                  ",
"                                                  ",
"                                                  ",
"                                                  ",
"                   ..........                     ",
"                 ..............                   ",
"               ..................                 ",
"              .....++++++++++.....                ",
"             ....++++++++++++++....               ",
"           ....++++++++++++++++++....             ",
"          ....++++++++++++++++++++....            ",
"         ....++++++++++++++++++++++....           ",
"        ....++++++++++++++++++++++++....          ",
"       ....++++++++++++++++++++++++++....         ",
"      ....++++++++++++++++++++++++++++....        ",
"     ....++++++++++++++++++++++++++++++....       ",
"    ....+++++++++++++++++++++++++++++++....       ",
"   ....+++++++++++++........++++++++++++....      ",
"  ....++++++++++++..............+++++++++....     ",
" ....+++++++++++................++++++++++....    ",
" ....++++++++++..................+++++++++....    ",
" ....+++++++++....................++++++++....    ",
" ....++++++++......................+++++++....    ",
" ....+++++++.......................+++++++....    ",
" ....++++++.........................++++++....    ",
" ....+++++...........................+++++....    ",
"  ....++++...........................++++....     ",
"  ....+++.............................+++....     ",
"   ....++.............................++....      ",
"    ....+.............................+....       ",
"     ....................................         ",
"      ..................................          ",
"       ..............................             ",
"        ............................              ",
"         ..........................               ",
"          ........................                ",
"           ......................                 ",
"             ..................                   ",
"               ..............                     ",
"                 ..........                       ",
"                                                  ",
"                                                  ",
"                                                  ",
"                                                  ",
"                                                  ",
"                                                  ",
"                                                  ",
"                                                  ",
"                                                  "
};
