/* XPM */
static char * grass_xpm[] = {
"50 50 4 1",
"   c #FFFFFF",
"G  c #32CD32",
"B  c #228B22",
"D  c #006400",
"GGGBGGGBGGGBGGGBGGGBGGGBGGGBGGGBGGGBGGGBGGGBGGGBGG",
"GGGBGGGBGGGBGGGBGGGBGGGBGGGBGGGBGGGBGGGBGGGBGGGBGG",
"GGGBGGGBGGGBGGGBGGGBGGGBGGGBGGGBGGGBGGGBGGGBGGGBGG",
"GGGBGGGBGGGBGGGBGGGBGGGBGGGBGGGBGGGBGGGBGGGBGGGBGG",
"GGGBGGGBGGGBGGGBGGGBGGGBGGGBGGGBGGGBGGGBGGGBGGGBGG",
"GGGBGGGBGGGBGGGBGGGBGGGBGGGBGGGBGGGBGGGBGGGBGGGBGG",
"GGGBGGGBGGGBGGGBGGGBGGGBGGGBGGGBGGGBGGGBGGGBGGGBGG",
"GGGBGGGBGGGBGGGBGGGBGGGBGGGBGGGBGGGBGGGBGGGBGGGBGG",
"GGGBGGGBGGGBGGGBGGGBGGGBGGGBGGGBGGGBGGGBGGGBGGGBGG",
"GGGBGGGBGGGBGGGBGGGBGGGBGGGBGGGBGGGBGGGBGGGBGGGBGG",
"GGGBGGGBGGGBGGGBGGGBGGGBGGGBGGGBGGGBGGGBGGGBGGGBGG",
"GGGBGGGBGGGBGGGBGGGBGGGBGGGBGGGBGGGBGGGBGGGBGGGBGG",
"GGGBGGGBGGGBGGGBGGGBGGGBGGGBGGGBGGGBGGGBGGGBGGGBGG",
"GGGBGGGBGGGBGGGBGGGBGGGBGGGBGGGBGGGBGGGBGGGBGGGBGG",
"GGGBGGGBGGGBGGGBGGGBGGGBGGGBGGGBGGGBGGGBGGGBGGGBGG",
"GGGBGGGBGGGBGGGBGGGBGGGBGGGBGGGBGGGBGGGBGGGBGGGBGG",
"GGGBGGGBGGGBGGGBGGGBGGGBGGGBGGGBGGGBGGGBGGGBGGGBGG",
"GGGBGGGBGGGBGGGBGGGBGGGBGGGBGGGBGGGBGGGBGGGBGGGBGG",
"GGGBGGGBGGGBGGGBGGGBGGGBGGGBGGGBGGGBGGGBGGGBGGGBGG",
"GGGBGGGBGGGBGGGBGGGBGGGBGGGBGGGBGGGBGGGBGGGBGGGBGG",
"GGGBGGGBGGGBGGGBGGGBGGGBGGGBGGGBGGGBGGGBGGGBGGGBGG",
"GGGBGGGBGGGBGGGBGGGBGGGBGGGBGGGBGGGBGGGBGGGBGGGBGG",
"GGGBGGGBGGGBGGGBGGGBGGGBGGGBGGGBGGGBGGGBGGGBGGGBGG",
"GGGBGGGBGGGBGGGBGGGBGGGBGGGBGGGBGGGBGGGBGGGBGGGBGG",
"GGGBGGGBGGGBGGGBGGGBGGGBGGGBGGGBGGGBGGGBGGGBGGGBGG",
"GGGBGGGBGGGBGGGBGGGBGGGBGGGBGGGBGGGBGGGBGGGBGGGBGG",
"GGGBGGGBGGGBGGGBGGGBGGGBGGGBGGGBGGGBGGGBGGGBGGGBGG",
"GGGBGGGBGGGBGGGBGGGBGGGBGGGBGGGBGGGBGGGBGGGBGGGBGG",
"GGGBGGGBGGGBGGGBGGGBGGGBGGGBGGGBGGGBGGGBGGGBGGGBGG",
"GGGBGGGBGGGBGGGBGGGBGGGBGGGBGGGBGGGBGGGBGGGBGGGBGG",
"GGGBGGGBGGGBGGGBGGGBGGGBGGGBGGGBGGGBGGGBGGGBGGGBGG",
"GGGBGGGBGGGBGGGBGGGBGGGBGGGBGGGBGGGBGGGBGGGBGGGBGG",
"GGGBGGGBGGGBGGGBGGGBGGGBGGGBGGGBGGGBGGGBGGGBGGGBGG",
"GGGBGGGBGGGBGGGBGGGBGGGBGGGBGGGBGGGBGGGBGGGBGGGBGG",
"GGGBGGGBGGGBGGGBGGGBGGGBGGGBGGGBGGGBGGGBGGGBGGGBGG",
"GGGBGGGBGGGBGGGBGGGBGGGBGGGBGGGBGGGBGGGBGGGBGGGBGG",
"GGGBGGGBGGGBGGGBGGGBGGGBGGGBGGGBGGGBGGGBGGGBGGGBGG",
"GGGBGGGBGGGBGGGBGGGBGGGBGGGBGGGBGGGBGGGBGGGBGGGBGG",
"GGGBGGGBGGGBGGGBGGGBGGGBGGGBGGGBGGGBGGGBGGGBGGGBGG",
"GGGBGGGBGGGBGGGBGGGBGGGBGGGBGGGBGGGBGGGBGGGBGGGBGG",
"GGGBGGGBGGGBGGGBGGGBGGGBGGGBGGGBGGGBGGGBGGGBGGGBGG",
"GGGBGGGBGGGBGGGBGGGBGGGBGGGBGGGBGGGBGGGBGGGBGGGBGG",
"GGGBGGGBGGGBGGGBGGGBGGGBGGGBGGGBGGGBGGGBGGGBGGGBGG",
"GGGBGGGBGGGBGGGBGGGBGGGBGGGBGGGBGGGBGGGBGGGBGGGBGG",
"GGGBGGGBGGGBGGGBGGGBGGGBGGGBGGGBGGGBGGGBGGGBGGGBGG",
"GGGBGGGBGGGBGGGBGGGBGGGBGGGBGGGBGGGBGGGBGGGBGGGBGG",
"GGGBGGGBGGGBGGGBGGGBGGGBGGGBGGGBGGGBGGGBGGGBGGGBGG",
"GGGBGGGBGGGBGGGBGGGBGGGBGGGBGGGBGGGBGGGBGGGBGGGBGG",
"GGGBGGGBGGGBGGGBGGGBGGGBGGGBGGGBGGGBGGGBGGGBGGGBGG",
"GGGBGGGBGGGBGGGBGGGBGGGBGGGBGGGBGGGBGGGBGGGBGGGBGG"
};
